<svg width="30" height="30" viewBox="0 0 30 30" fill="none" xmlns="http://www.w3.org/2000/svg">
<path fill-rule="evenodd" clip-rule="evenodd" d="M19.1499 12.25C18.5499 12.25 17.9499 12.35 17.3499 12.55C17.5499 12 17.6499 11.4 17.6499 10.8C17.6499 9.4 17.0999 8.1 16.0999 7.15C15.8999 6.95 15.5999 6.95 15.3999 7.15C14.4499 8.15 13.8999 9.45 13.8999 10.85C13.8999 12.25 14.4499 13.55 15.4499 14.5C16.4499 15.45 17.6999 15.95 19.0499 15.95C20.4499 15.95 21.7999 15.4 22.7499 14.4C22.9499 14.2 22.9499 13.9 22.7499 13.7C21.7999 12.8 20.4999 12.25 19.1499 12.25ZM15.7499 8.3C16.3499 9.05 16.6499 9.9 16.6499 10.85C16.6499 11.8 16.3499 12.7 15.7999 13.4C15.1999 12.65 14.8999 11.8 14.8999 10.85C14.8999 9.95 15.1999 9.05 15.7499 8.3ZM16.5499 14.2C17.2999 14.75 18.1999 15.05 19.0999 15.05C20.0499 15.05 20.9499 14.7 21.6999 14.15C20.9499 13.6 20.0499 13.3 19.1499 13.3C18.1999 13.3 17.2999 13.6 16.5499 14.2Z" fill="#333333"/>
<path fill-rule="evenodd" clip-rule="evenodd" d="M15.8501 15.65C15.2501 15.65 14.6001 15.75 14.0501 15.95C14.7001 14.1 14.2501 12 12.8001 10.55C12.7001 10.45 12.5501 10.4 12.4501 10.4C12.3001 10.4 12.2001 10.45 12.1001 10.55C11.1501 11.55 10.6001 12.85 10.6001 14.25C10.6001 15.65 11.1501 16.95 12.1501 17.9C13.1501 18.85 14.4001 19.4 15.7501 19.4C17.1501 19.4 18.5001 18.85 19.4501 17.85C19.5501 17.75 19.6001 17.65 19.6001 17.5C19.6001 17.35 19.5501 17.25 19.4501 17.15C18.5001 16.15 17.2501 15.65 15.8501 15.65ZM12.4501 11.65C13.6501 13.15 13.6501 15.25 12.5001 16.8C11.9501 16.05 11.6001 15.2 11.6001 14.25C11.6001 13.3 11.9001 12.4 12.4501 11.65ZM13.2501 17.55C14.0001 18.1 14.9001 18.4 15.8001 18.4C16.7501 18.4 17.6501 18.05 18.4001 17.5C17.6501 16.95 16.8001 16.65 15.8501 16.65C14.9001 16.65 14.0001 16.95 13.2501 17.55Z" fill="#333333"/>
<path fill-rule="evenodd" clip-rule="evenodd" d="M12.55 19C11.95 19 11.35 19.1 10.75 19.3C10.95 18.75 11.05 18.15 11.05 17.55C11.05 16.15 10.5 14.85 9.50005 13.9C9.30005 13.7 9.00005 13.7 8.80005 13.9C7.85005 14.9 7.30005 16.2 7.30005 17.6C7.30005 19 7.85005 20.25 8.85005 21.25C9.85005 22.2 11.1 22.7 12.5 22.7C13.9 22.7 15.25 22.15 16.2 21.15C16.3 21.05 16.35 20.95 16.35 20.8C16.35 20.65 16.3 20.55 16.2 20.45C15.25 19.5 13.95 19 12.55 19ZM9.15005 15C9.75005 15.75 10.05 16.6 10.05 17.55C10.05 18.5 9.75005 19.4 9.20005 20.1C8.65005 19.35 8.30005 18.5 8.30005 17.55C8.30005 16.65 8.60005 15.75 9.15005 15ZM9.95005 20.9C10.7 21.45 11.55 21.75 12.5 21.75C13.45 21.75 14.35 21.4 15.1 20.85C14.35 20.3 13.45 20 12.55 20C11.6 20 10.7 20.3 9.95005 20.9Z" fill="#333333"/>
<path fill-rule="evenodd" clip-rule="evenodd" d="M9.3 22.35C8.7 22.35 8.1 22.45 7.5 22.65C7.7 22.1 7.8 21.5 7.8 20.9C7.8 19.5 7.25 18.2 6.25 17.25C6.05 17.05 5.75 17.05 5.55 17.25C3.7 19.15 3.6 22.15 5.2 24.15C4.85 24.45 4.1 25.15 3.15 26.15C2.95 26.35 2.95 26.65 3.15 26.85C3.25 26.95 3.35 27 3.5 27C3.65 27 3.75 26.95 3.85 26.85C4.85 25.8 5.6 25.15 5.9 24.9C6.85 25.7 8 26.1 9.2 26.1C10.6 26.1 11.95 25.55 12.9 24.55C13.1 24.35 13.1 24.05 12.9 23.85C11.95 22.85 10.65 22.35 9.3 22.35ZM5.9 18.35C6.45 19.1 6.8 19.95 6.8 20.9C6.8 21.85 6.5 22.75 5.95 23.45C4.75 22 4.75 19.9 5.9 18.35ZM6.65 24.25C7.4 24.8 8.3 25.1 9.2 25.1C10.2 25.1 11.1 24.75 11.8 24.2C11.05 23.65 10.15 23.35 9.25 23.35C8.3 23.35 7.4 23.65 6.65 24.25Z" fill="#333333"/>
<path d="M18.8501 8.35C19.0001 8.35 19.1001 8.3 19.2001 8.2L23.5501 3.85C23.7501 3.65 23.7501 3.35 23.5501 3.15C23.3501 2.95 23.0501 2.95 22.8501 3.15L18.5001 7.5C18.3001 7.7 18.3001 8 18.5001 8.2C18.6001 8.3 18.7501 8.35 18.8501 8.35Z" fill="#333333"/>
<path d="M19.0001 11C19.1001 11.1 19.2501 11.15 19.3501 11.15C19.4501 11.15 19.6001 11.1 19.7001 11L26.4001 4.35C26.6001 4.15 26.6001 3.85 26.4001 3.65C26.2001 3.45 25.9001 3.45 25.7001 3.65L19.0001 10.3C18.8001 10.5 18.8001 10.8 19.0001 11Z" fill="#333333"/>
<path d="M26.8499 6.45C26.6499 6.25 26.3499 6.25 26.1499 6.45L21.7999 10.8C21.5999 11 21.5999 11.3 21.7999 11.5C21.8999 11.6 22.0499 11.65 22.1499 11.65C22.2999 11.65 22.3999 11.6 22.4999 11.5L26.8499 7.15C27.0499 6.95 27.0499 6.65 26.8499 6.45Z" fill="#333333"/>
</svg>
